<?xml version="1.0" encoding="UTF-8" standalone="no"?>
<!DOCTYPE svg PUBLIC "-//W3C//DTD SVG 1.1//EN" "http://www.w3.org/Graphics/SVG/1.1/DTD/svg11.dtd">
<svg width="100%" height="100%" viewBox="0 0 261 50" version="1.1" xmlns="http://www.w3.org/2000/svg" xmlns:xlink="http://www.w3.org/1999/xlink" xml:space="preserve" xmlns:serif="http://www.serif.com/" style="fill-rule:evenodd;clip-rule:evenodd;stroke-linejoin:round;stroke-miterlimit:1.41421;">
    <g id="Artboard2" transform="matrix(1,0,0,1.04765,-2.04839,-15.321)">
        <rect x="2.048" y="14.624" width="260.4" height="47.35" style="fill:none;"/>
        <g transform="matrix(1,0,0,0.954516,-695,-1066.01)">
            <path d="M709.748,1169.61C708.748,1169.61 708.098,1169.14 707.798,1168.2L697.098,1136.11C697.065,1136.01 697.048,1135.86 697.048,1135.65C697.048,1135.36 697.148,1135.11 697.348,1134.9C697.548,1134.7 697.798,1134.61 698.098,1134.61L702.548,1134.61C702.982,1134.61 703.332,1134.72 703.598,1134.95C703.865,1135.19 704.048,1135.44 704.148,1135.7L712.498,1161.31L720.898,1135.7C720.965,1135.44 721.132,1135.19 721.398,1134.95C721.665,1134.72 722.015,1134.61 722.448,1134.61L726.948,1134.61C727.215,1134.61 727.457,1134.7 727.673,1134.9C727.89,1135.11 727.998,1135.36 727.998,1135.65L727.898,1136.11L717.248,1168.2C716.915,1169.14 716.265,1169.61 715.298,1169.61L709.748,1169.61Z" style="fill:rgb(13,158,82);fill-rule:nonzero;"/>
            <path d="M741.298,1170.11C737.565,1170.11 734.607,1169.04 732.423,1166.9C730.24,1164.77 729.082,1161.74 728.948,1157.81L728.898,1156.56C728.898,1152.39 729.99,1149.11 732.173,1146.7C734.357,1144.31 737.382,1143.11 741.248,1143.11C745.215,1143.11 748.273,1144.31 750.423,1146.7C752.573,1149.11 753.648,1152.31 753.648,1156.31L753.648,1157.36C753.648,1157.69 753.532,1157.97 753.298,1158.2C753.065,1158.44 752.765,1158.56 752.398,1158.56L735.798,1158.56L735.798,1158.95C735.865,1160.82 736.373,1162.36 737.323,1163.58C738.273,1164.8 739.582,1165.4 741.248,1165.4C743.148,1165.4 744.698,1164.64 745.898,1163.11C746.198,1162.74 746.432,1162.51 746.598,1162.43C746.765,1162.35 747.048,1162.31 747.448,1162.31L751.848,1162.31C752.148,1162.31 752.407,1162.39 752.623,1162.56C752.84,1162.72 752.948,1162.95 752.948,1163.26C752.948,1164.06 752.473,1165 751.523,1166.08C750.573,1167.16 749.215,1168.11 747.448,1168.9C745.682,1169.7 743.632,1170.11 741.298,1170.11ZM746.748,1154.31L746.748,1154.2C746.748,1152.24 746.257,1150.66 745.273,1149.48C744.29,1148.3 742.948,1147.7 741.248,1147.7C739.548,1147.7 738.215,1148.3 737.248,1149.48C736.282,1150.66 735.798,1152.24 735.798,1154.2L735.798,1154.31L746.748,1154.31Z" style="fill:rgb(13,158,82);fill-rule:nonzero;"/>
            <path d="M760.198,1169.61C759.865,1169.61 759.582,1169.49 759.348,1169.26C759.115,1169.02 758.998,1168.74 758.998,1168.4L758.998,1135.31C758.998,1134.94 759.115,1134.65 759.348,1134.43C759.582,1134.21 759.865,1134.11 760.198,1134.11L764.398,1134.11C764.765,1134.11 765.057,1134.21 765.273,1134.43C765.49,1134.65 765.598,1134.94 765.598,1135.31L765.598,1168.4C765.598,1168.74 765.49,1169.02 765.273,1169.26C765.057,1169.49 764.765,1169.61 764.398,1169.61L760.198,1169.61Z" style="fill:rgb(13,158,82);fill-rule:nonzero;"/>
            <path d="M783.798,1170.11C779.865,1170.11 776.832,1169.11 774.698,1167.11C772.565,1165.11 771.415,1162.34 771.248,1158.81L771.198,1156.61L771.248,1154.4C771.415,1150.9 772.582,1148.15 774.748,1146.13C776.915,1144.11 779.932,1143.11 783.798,1143.11C787.632,1143.11 790.632,1144.11 792.798,1146.13C794.965,1148.15 796.132,1150.9 796.298,1154.4C796.332,1154.81 796.348,1155.54 796.348,1156.61C796.348,1157.67 796.332,1158.4 796.298,1158.81C796.132,1162.34 794.982,1165.11 792.848,1167.11C790.715,1169.11 787.698,1170.11 783.798,1170.11ZM783.798,1165.06C785.565,1165.06 786.923,1164.51 787.873,1163.4C788.823,1162.31 789.332,1160.69 789.398,1158.56C789.432,1158.22 789.448,1157.57 789.448,1156.61C789.448,1155.64 789.432,1154.99 789.398,1154.65C789.332,1152.52 788.815,1150.9 787.848,1149.78C786.882,1148.66 785.532,1148.11 783.798,1148.11C782.032,1148.11 780.665,1148.66 779.698,1149.78C778.732,1150.9 778.215,1152.52 778.148,1154.65L778.098,1156.61L778.148,1158.56C778.215,1160.69 778.732,1162.31 779.698,1163.4C780.665,1164.51 782.032,1165.06 783.798,1165.06Z" style="fill:rgb(13,158,82);fill-rule:nonzero;"/>
            <path d="M813.648,1180.61C810.682,1180.61 808.282,1180.11 806.448,1179.13C804.615,1178.15 803.315,1177.02 802.548,1175.76C801.782,1174.49 801.398,1173.4 801.398,1172.51C801.398,1172.17 801.515,1171.9 801.748,1171.68C801.982,1171.46 802.265,1171.36 802.598,1171.36L807.048,1171.36C807.348,1171.36 807.607,1171.43 807.823,1171.58C808.04,1171.73 808.215,1172.01 808.348,1172.4C808.715,1173.27 809.265,1174.01 809.998,1174.63C810.732,1175.25 811.865,1175.56 813.398,1175.56C815.398,1175.56 816.865,1175.11 817.798,1174.23C818.732,1173.35 819.198,1171.81 819.198,1169.61L819.198,1166.2C817.398,1168.34 814.848,1169.4 811.548,1169.4C808.082,1169.4 805.473,1168.36 803.723,1166.26C801.973,1164.15 801.032,1161.29 800.898,1157.65L800.848,1156.31L800.898,1154.95C801.032,1151.39 801.982,1148.52 803.748,1146.36C805.515,1144.19 808.115,1143.11 811.548,1143.11C813.315,1143.11 814.865,1143.44 816.198,1144.11C817.532,1144.77 818.632,1145.67 819.498,1146.81L819.498,1144.86C819.498,1144.49 819.623,1144.19 819.873,1143.95C820.123,1143.72 820.415,1143.61 820.748,1143.61L824.848,1143.61C825.182,1143.61 825.465,1143.72 825.698,1143.95C825.932,1144.19 826.048,1144.49 826.048,1144.86L826.098,1168.95C826.098,1172.65 825.065,1175.52 822.998,1177.56C820.932,1179.59 817.815,1180.61 813.648,1180.61ZM813.448,1164.11C815.315,1164.11 816.715,1163.51 817.648,1162.31C818.582,1161.11 819.098,1159.64 819.198,1157.9C819.232,1157.64 819.248,1157.11 819.248,1156.31C819.248,1155.51 819.232,1154.97 819.198,1154.7C819.098,1152.97 818.582,1151.51 817.648,1150.31C816.715,1149.11 815.315,1148.51 813.448,1148.51C809.848,1148.51 807.948,1150.7 807.748,1155.11L807.698,1156.31C807.698,1161.51 809.615,1164.11 813.448,1164.11Z" style="fill:rgb(13,158,82);fill-rule:nonzero;"/>
            <path d="M833.698,1139.36C833.365,1139.36 833.082,1139.24 832.848,1139.01C832.615,1138.77 832.498,1138.49 832.498,1138.15L832.498,1134.51C832.498,1134.14 832.615,1133.84 832.848,1133.61C833.082,1133.37 833.365,1133.26 833.698,1133.26L838.298,1133.26C838.665,1133.26 838.965,1133.37 839.198,1133.61C839.432,1133.84 839.548,1134.14 839.548,1134.51L839.548,1138.15C839.548,1138.49 839.423,1138.77 839.173,1139.01C838.923,1139.24 838.632,1139.36 838.298,1139.36L833.698,1139.36ZM833.898,1169.61C833.565,1169.61 833.282,1169.49 833.048,1169.26C832.815,1169.02 832.698,1168.74 832.698,1168.4L832.698,1144.81C832.698,1144.44 832.815,1144.15 833.048,1143.93C833.282,1143.71 833.565,1143.61 833.898,1143.61L838.148,1143.61C838.482,1143.61 838.765,1143.72 838.998,1143.95C839.232,1144.19 839.348,1144.47 839.348,1144.81L839.348,1168.4C839.348,1168.74 839.232,1169.02 838.998,1169.26C838.765,1169.49 838.482,1169.61 838.148,1169.61L833.898,1169.61Z" style="fill:rgb(13,158,82);fill-rule:nonzero;"/>
            <path d="M855.848,1170.11C853.315,1170.11 851.198,1169.72 849.498,1168.95C847.798,1168.19 846.54,1167.3 845.723,1166.28C844.907,1165.26 844.498,1164.39 844.498,1163.65C844.498,1163.32 844.607,1163.06 844.823,1162.86C845.04,1162.65 845.298,1162.56 845.598,1162.56L849.698,1162.56C849.965,1162.56 850.198,1162.69 850.398,1162.95C850.565,1163.09 850.94,1163.4 851.523,1163.9C852.107,1164.4 852.773,1164.8 853.523,1165.08C854.273,1165.36 855.098,1165.51 855.998,1165.51C857.332,1165.51 858.415,1165.25 859.248,1164.73C860.082,1164.21 860.498,1163.47 860.498,1162.51C860.498,1161.84 860.307,1161.3 859.923,1160.88C859.54,1160.46 858.857,1160.08 857.873,1159.73C856.89,1159.38 855.415,1158.99 853.448,1158.56C850.615,1157.95 848.523,1157.04 847.173,1155.81C845.823,1154.57 845.148,1152.94 845.148,1150.9C845.148,1149.57 845.548,1148.31 846.348,1147.13C847.148,1145.95 848.34,1144.98 849.923,1144.23C851.507,1143.48 853.398,1143.11 855.598,1143.11C857.865,1143.11 859.815,1143.46 861.448,1144.18C863.082,1144.9 864.323,1145.76 865.173,1146.76C866.023,1147.76 866.448,1148.64 866.448,1149.4C866.448,1149.7 866.34,1149.96 866.123,1150.18C865.907,1150.4 865.648,1150.51 865.348,1150.51L861.598,1150.51C861.232,1150.51 860.948,1150.37 860.748,1150.11C860.515,1149.94 860.14,1149.63 859.623,1149.18C859.107,1148.73 858.532,1148.37 857.898,1148.11C857.265,1147.84 856.498,1147.7 855.598,1147.7C854.365,1147.7 853.415,1147.97 852.748,1148.51C852.082,1149.04 851.748,1149.74 851.748,1150.61C851.748,1151.2 851.907,1151.7 852.223,1152.11C852.54,1152.51 853.182,1152.88 854.148,1153.23C855.115,1153.58 856.565,1153.94 858.498,1154.31C864.498,1155.47 867.498,1158.09 867.498,1162.15C867.498,1164.52 866.473,1166.44 864.423,1167.9C862.373,1169.37 859.515,1170.11 855.848,1170.11Z" style="fill:rgb(13,158,82);fill-rule:nonzero;"/>
            <path d="M884.298,1169.61C881.265,1169.61 878.982,1168.81 877.448,1167.23C875.915,1165.65 875.148,1163.32 875.148,1160.26L875.148,1148.95L871.198,1148.95C870.865,1148.95 870.582,1148.84 870.348,1148.61C870.115,1148.37 869.998,1148.09 869.998,1147.76L869.998,1144.81C869.998,1144.47 870.115,1144.19 870.348,1143.95C870.582,1143.72 870.865,1143.61 871.198,1143.61L875.148,1143.61L875.148,1135.31C875.148,1134.94 875.265,1134.65 875.498,1134.43C875.732,1134.21 876.015,1134.11 876.348,1134.11L880.498,1134.11C880.865,1134.11 881.157,1134.21 881.373,1134.43C881.59,1134.65 881.698,1134.94 881.698,1135.31L881.698,1143.61L887.948,1143.61C888.282,1143.61 888.565,1143.72 888.798,1143.95C889.032,1144.19 889.148,1144.47 889.148,1144.81L889.148,1147.76C889.148,1148.09 889.032,1148.37 888.798,1148.61C888.565,1148.84 888.282,1148.95 887.948,1148.95L881.698,1148.95L881.698,1159.7C881.698,1161.14 881.948,1162.22 882.448,1162.95C882.948,1163.69 883.765,1164.06 884.898,1164.06L888.398,1164.06C888.765,1164.06 889.057,1164.16 889.273,1164.38C889.49,1164.6 889.598,1164.89 889.598,1165.26L889.598,1168.4C889.598,1168.74 889.49,1169.02 889.273,1169.26C889.057,1169.49 888.765,1169.61 888.398,1169.61L884.298,1169.61Z" style="fill:rgb(13,158,82);fill-rule:nonzero;"/>
            <path d="M895.048,1139.36C894.715,1139.36 894.432,1139.24 894.198,1139.01C893.965,1138.77 893.848,1138.49 893.848,1138.15L893.848,1134.51C893.848,1134.14 893.965,1133.84 894.198,1133.61C894.432,1133.37 894.715,1133.26 895.048,1133.26L899.648,1133.26C900.015,1133.26 900.315,1133.37 900.548,1133.61C900.782,1133.84 900.898,1134.14 900.898,1134.51L900.898,1138.15C900.898,1138.49 900.773,1138.77 900.523,1139.01C900.273,1139.24 899.982,1139.36 899.648,1139.36L895.048,1139.36ZM895.248,1169.61C894.915,1169.61 894.632,1169.49 894.398,1169.26C894.165,1169.02 894.048,1168.74 894.048,1168.4L894.048,1144.81C894.048,1144.44 894.165,1144.15 894.398,1143.93C894.632,1143.71 894.915,1143.61 895.248,1143.61L899.498,1143.61C899.832,1143.61 900.115,1143.72 900.348,1143.95C900.582,1144.19 900.698,1144.47 900.698,1144.81L900.698,1168.4C900.698,1168.74 900.582,1169.02 900.348,1169.26C900.115,1169.49 899.832,1169.61 899.498,1169.61L895.248,1169.61Z" style="fill:rgb(13,158,82);fill-rule:nonzero;"/>
            <path d="M918.548,1170.11C914.882,1170.11 911.957,1169.09 909.773,1167.06C907.59,1165.02 906.432,1162.2 906.298,1158.61L906.248,1156.61L906.298,1154.61C906.432,1151.01 907.59,1148.19 909.773,1146.15C911.957,1144.12 914.882,1143.11 918.548,1143.11C921.182,1143.11 923.407,1143.57 925.223,1144.51C927.04,1145.44 928.39,1146.58 929.273,1147.93C930.157,1149.28 930.632,1150.57 930.698,1151.81C930.732,1152.14 930.623,1152.42 930.373,1152.65C930.123,1152.89 929.832,1153.01 929.498,1153.01L925.048,1153.01C924.682,1153.01 924.415,1152.93 924.248,1152.78C924.082,1152.63 923.915,1152.36 923.748,1151.95C923.248,1150.69 922.59,1149.77 921.773,1149.2C920.957,1148.64 919.915,1148.36 918.648,1148.36C916.948,1148.36 915.623,1148.89 914.673,1149.95C913.723,1151.02 913.215,1152.65 913.148,1154.86L913.098,1156.7L913.148,1158.36C913.348,1162.69 915.182,1164.86 918.648,1164.86C919.948,1164.86 920.998,1164.58 921.798,1164.03C922.598,1163.48 923.248,1162.56 923.748,1161.26C923.882,1160.89 924.04,1160.62 924.223,1160.45C924.407,1160.29 924.682,1160.2 925.048,1160.2L929.498,1160.2C929.832,1160.2 930.123,1160.32 930.373,1160.56C930.623,1160.79 930.732,1161.07 930.698,1161.4C930.632,1162.57 930.165,1163.83 929.298,1165.18C928.432,1166.53 927.098,1167.69 925.298,1168.65C923.498,1169.62 921.248,1170.11 918.548,1170.11Z" style="fill:rgb(13,158,82);fill-rule:nonzero;"/>
            <path d="M945.798,1170.11C943.265,1170.11 941.148,1169.72 939.448,1168.95C937.748,1168.19 936.49,1167.3 935.673,1166.28C934.857,1165.26 934.448,1164.39 934.448,1163.65C934.448,1163.32 934.557,1163.06 934.773,1162.86C934.99,1162.65 935.248,1162.56 935.548,1162.56L939.648,1162.56C939.915,1162.56 940.148,1162.69 940.348,1162.95C940.515,1163.09 940.89,1163.4 941.473,1163.9C942.057,1164.4 942.723,1164.8 943.473,1165.08C944.223,1165.36 945.048,1165.51 945.948,1165.51C947.282,1165.51 948.365,1165.25 949.198,1164.73C950.032,1164.21 950.448,1163.47 950.448,1162.51C950.448,1161.84 950.257,1161.3 949.873,1160.88C949.49,1160.46 948.807,1160.08 947.823,1159.73C946.84,1159.38 945.365,1158.99 943.398,1158.56C940.565,1157.95 938.473,1157.04 937.123,1155.81C935.773,1154.57 935.098,1152.94 935.098,1150.9C935.098,1149.57 935.498,1148.31 936.298,1147.13C937.098,1145.95 938.29,1144.98 939.873,1144.23C941.457,1143.48 943.348,1143.11 945.548,1143.11C947.815,1143.11 949.765,1143.46 951.398,1144.18C953.032,1144.9 954.273,1145.76 955.123,1146.76C955.973,1147.76 956.398,1148.64 956.398,1149.4C956.398,1149.7 956.29,1149.96 956.073,1150.18C955.857,1150.4 955.598,1150.51 955.298,1150.51L951.548,1150.51C951.182,1150.51 950.898,1150.37 950.698,1150.11C950.465,1149.94 950.09,1149.63 949.573,1149.18C949.057,1148.73 948.482,1148.37 947.848,1148.11C947.215,1147.84 946.448,1147.7 945.548,1147.7C944.315,1147.7 943.365,1147.97 942.698,1148.51C942.032,1149.04 941.698,1149.74 941.698,1150.61C941.698,1151.2 941.857,1151.7 942.173,1152.11C942.49,1152.51 943.132,1152.88 944.098,1153.23C945.065,1153.58 946.515,1153.94 948.448,1154.31C954.448,1155.47 957.448,1158.09 957.448,1162.15C957.448,1164.52 956.423,1166.44 954.373,1167.9C952.323,1169.37 949.465,1170.11 945.798,1170.11Z" style="fill:rgb(13,158,82);fill-rule:nonzero;"/>
        </g>
    </g>
</svg>
