<?xml version="1.0" encoding="UTF-8" standalone="no"?>
<!DOCTYPE svg PUBLIC "-//W3C//DTD SVG 1.1//EN" "http://www.w3.org/Graphics/SVG/1.1/DTD/svg11.dtd">
<svg width="100%" height="100%" viewBox="0 0 1757 1757" version="1.1" xmlns="http://www.w3.org/2000/svg" xmlns:xlink="http://www.w3.org/1999/xlink" xml:space="preserve" xmlns:serif="http://www.serif.com/" style="fill-rule:evenodd;clip-rule:evenodd;stroke-linejoin:round;stroke-miterlimit:1.41421;">
    <g id="Artboard1" transform="matrix(1,0,0,1,-759.763,-406.689)">
        <rect x="759.763" y="406.689" width="1756.29" height="1756.29" style="fill:none;"/>
        <clipPath id="_clip1">
            <rect x="759.763" y="406.689" width="1756.29" height="1756.29"/>
        </clipPath>
        <g clip-path="url(#_clip1)">
            <g transform="matrix(1,0,0,1,131.595,389.278)">
                <g transform="matrix(1.36998,-0.350937,0.350937,1.36998,-642.298,-577.559)">
                    <path d="M1377.96,1717.28C1357.38,1717.28 1343.13,1706.99 1335.21,1686.41L1068.02,922.844L1065.65,909.781C1065.65,903.448 1068.22,897.906 1073.37,893.156C1078.51,888.406 1084.25,886.031 1090.59,886.031L1147.59,886.031C1156.3,886.031 1163.22,888.208 1168.37,892.562C1173.51,896.916 1176.88,901.864 1178.46,907.406L1413.59,1586.66L1649.9,907.406C1651.48,901.864 1654.85,896.916 1659.99,892.562C1665.14,888.208 1672.07,886.031 1680.77,886.031L1737.77,886.031C1744.11,886.031 1749.65,888.406 1754.4,893.156C1759.15,897.906 1761.52,903.448 1761.52,909.781C1761.52,915.323 1761.13,919.677 1760.34,922.844L1493.15,1686.41C1485.23,1706.99 1470.98,1717.28 1450.4,1717.28L1377.96,1717.28Z" style="fill:rgb(8,158,82);fill-rule:nonzero;"/>
                </g>
                <g transform="matrix(1,0,0,1,629,230.028)">
                    <circle cx="750.545" cy="709.735" r="28.11" style="fill:rgb(224,190,0);"/>
                </g>
                <g transform="matrix(1,0,0,1,10.7137,-9.40976)">
                    <path d="M1777.39,1582.45L1716.1,1582.45L1566.46,1127.97L2374.5,1183.91L2374.5,1582.45L2271.98,1582.45C2272.03,1580.44 2272.06,1578.42 2272.06,1576.4C2272.06,1439.88 2161.21,1329.04 2024.69,1329.04C1888.16,1329.04 1777.32,1439.88 1777.32,1576.4C1777.32,1578.42 1777.34,1580.44 1777.39,1582.45Z" style="fill:rgb(224,190,0);"/>
                    <path d="M881.826,1256.57C1027.32,1256.57 1145.44,1374.69 1145.44,1520.18C1145.44,1665.67 1027.32,1783.79 881.826,1783.79C736.336,1783.79 618.217,1665.67 618.217,1520.18C618.217,1374.69 736.336,1256.57 881.826,1256.57ZM881.826,1330.26C986.647,1330.26 1071.75,1415.36 1071.75,1520.18C1071.75,1625 986.647,1710.11 881.826,1710.11C777.006,1710.11 691.905,1625 691.905,1520.18C691.905,1415.36 777.006,1330.26 881.826,1330.26Z" style="fill:rgb(224,190,0);"/>
                    <g transform="matrix(0.901115,0,0,0.681181,391.239,689.648)">
                        <rect x="813.926" y="1213.46" width="724.34" height="97.206" style="fill:rgb(224,190,0);"/>
                    </g>
                    <g transform="matrix(0.406148,0,0,0.796853,837.878,572.508)">
                        <rect x="1304.83" y="437.413" width="404.501" height="70.553" style="fill:rgb(224,190,0);"/>
                    </g>
                    <g transform="matrix(0.796853,0,0,0.651971,421.598,688.677)">
                        <path d="M1017.06,653.787C1017.06,625.232 998.086,602.049 974.723,602.049L650.563,602.049C627.2,602.049 608.231,625.232 608.231,653.787L628.231,757.264C628.231,785.82 647.2,809.003 670.563,809.003L974.723,735.67C998.086,735.67 1017.06,712.486 1017.06,683.931L1017.06,653.787Z" style="fill:rgb(224,190,0);"/>
                    </g>
                    <g transform="matrix(0.752379,-0.262491,0.278178,0.797341,120.859,798.949)">
                        <rect x="916.713" y="729.043" width="87.799" height="523.657" style="fill:rgb(224,190,0);"/>
                    </g>
                    <g transform="matrix(0.752379,-0.262491,0.392746,1.12573,490.016,364.031)">
                        <rect x="916.713" y="729.043" width="87.799" height="523.657" style="fill:rgb(224,190,0);"/>
                    </g>
                    <path d="M2024.69,1369.01C2139.15,1369.01 2232.08,1461.94 2232.08,1576.4C2232.08,1690.87 2139.15,1783.79 2024.69,1783.79C1910.23,1783.79 1817.3,1690.87 1817.3,1576.4C1817.3,1461.94 1910.23,1369.01 2024.69,1369.01ZM2024.69,1431.73C2104.54,1431.73 2169.36,1496.56 2169.36,1576.4C2169.36,1656.25 2104.54,1721.08 2024.69,1721.08C1944.84,1721.08 1880.01,1656.25 1880.01,1576.4C1880.01,1496.56 1944.84,1431.73 2024.69,1431.73Z" style="fill:rgb(224,190,0);"/>
                </g>
            </g>
        </g>
    </g>
</svg>
