<?xml version="1.0" encoding="iso-8859-1"?>
<!-- Generator: Adobe Illustrator 19.0.0, SVG Export Plug-In . SVG Version: 6.00 Build 0)  -->
<svg version="1.1" id="Capa_1" xmlns="http://www.w3.org/2000/svg" xmlns:xlink="http://www.w3.org/1999/xlink" x="0px" y="0px"
	 viewBox="0 0 512 512" style="enable-background:new 0 0 512 512;" xml:space="preserve">
<g>
	<g>
		<path d="M437.02,74.98C388.667,26.629,324.38,0,256,0S123.333,26.629,74.98,74.98C26.629,123.333,0,187.62,0,256
			s26.629,132.667,74.98,181.02C123.333,485.371,187.62,512,256,512s132.667-26.629,181.02-74.98
			C485.371,388.667,512,324.38,512,256S485.371,123.333,437.02,74.98z M415.806,415.806C373.12,458.492,316.367,482,256,482
			s-117.12-23.508-159.806-66.194C53.508,373.12,30,316.367,30,256S53.508,138.88,96.194,96.194C138.88,53.508,195.633,30,256,30
			s117.12,23.508,159.806,66.194C458.492,138.88,482,195.633,482,256S458.492,373.12,415.806,415.806z"/>
	</g>
</g>
<g>
	<g>
		<path d="M256,60C147.925,60,60,147.925,60,256s87.925,196,196,196s196-87.925,196-196S364.075,60,256,60z M421.316,241H305.272
			c-0.982-3.219-2.272-6.305-3.834-9.224l82.012-82.012C404.491,174.965,418.208,206.475,421.316,241z M271,90.685
			c34.525,3.107,66.036,16.824,91.236,37.866l-82.012,82.012c-2.919-1.563-6.005-2.852-9.224-3.834V90.685z M241,90.685v116.044
			c-3.219,0.982-6.305,2.271-9.224,3.834l-82.012-82.012C174.965,107.509,206.475,93.793,241,90.685z M128.551,149.764
			l82.012,82.012c-1.563,2.919-2.852,6.005-3.834,9.224H90.685C93.792,206.475,107.509,174.964,128.551,149.764z M90.685,271
			h116.043c0.982,3.219,2.272,6.305,3.834,9.224l-82.012,82.012C107.509,337.036,93.792,305.525,90.685,271z M241,421.314
			c-34.525-3.107-66.036-16.824-91.236-37.866l82.012-82.011c2.919,1.563,6.005,2.852,9.224,3.834V421.314z M234.494,256
			c0-11.859,9.647-21.506,21.506-21.506s21.506,9.647,21.506,21.506s-9.648,21.506-21.506,21.506
			C244.142,277.506,234.494,267.859,234.494,256z M271,421.315V305.271c3.219-0.982,6.305-2.271,9.224-3.834l82.012,82.012
			C337.035,404.491,305.525,418.207,271,421.315z M383.448,362.236l-82.011-82.012c1.563-2.919,2.852-6.005,3.834-9.224h116.043
			C418.207,305.525,404.49,337.036,383.448,362.236z"/>
	</g>
</g>
<g>
</g>
<g>
</g>
<g>
</g>
<g>
</g>
<g>
</g>
<g>
</g>
<g>
</g>
<g>
</g>
<g>
</g>
<g>
</g>
<g>
</g>
<g>
</g>
<g>
</g>
<g>
</g>
<g>
</g>
</svg>
